<?xml version="1.0" encoding="UTF-8" ?>
<svg version="1.1" width="960" height="960" xmlns="http://www.w3.org/2000/svg" shape-rendering="crispEdges">
<rect x="480" y="64" width="32" height="32" fill="#847E87" />
<rect x="512" y="64" width="32" height="32" fill="#847E87" />
<rect x="544" y="64" width="32" height="32" fill="#847E87" />
<rect x="576" y="64" width="32" height="32" fill="#847E87" />
<rect x="608" y="64" width="32" height="32" fill="#847E87" />
<rect x="384" y="96" width="32" height="32" fill="#847E87" />
<rect x="416" y="96" width="32" height="32" fill="#847E87" />
<rect x="448" y="96" width="32" height="32" fill="#847E87" />
<rect x="480" y="96" width="32" height="32" fill="#847E87" />
<rect x="512" y="96" width="32" height="32" fill="#847E87" />
<rect x="544" y="96" width="32" height="32" fill="#847E87" />
<rect x="576" y="96" width="32" height="32" fill="#847E87" />
<rect x="608" y="96" width="32" height="32" fill="#847E87" />
<rect x="640" y="96" width="32" height="32" fill="#847E87" />
<rect x="672" y="96" width="32" height="32" fill="#847E87" />
<rect x="288" y="128" width="32" height="32" fill="#847E87" />
<rect x="320" y="128" width="32" height="32" fill="#847E87" />
<rect x="352" y="128" width="32" height="32" fill="#847E87" />
<rect x="384" y="128" width="32" height="32" fill="#847E87" />
<rect x="416" y="128" width="32" height="32" fill="#847E87" />
<rect x="448" y="128" width="32" height="32" fill="#847E87" />
<rect x="480" y="128" width="32" height="32" fill="#847E87" />
<rect x="512" y="128" width="32" height="32" fill="#847E87" />
<rect x="544" y="128" width="32" height="32" fill="#847E87" />
<rect x="576" y="128" width="32" height="32" fill="#847E87" />
<rect x="608" y="128" width="32" height="32" fill="#847E87" />
<rect x="640" y="128" width="32" height="32" fill="#847E87" />
<rect x="672" y="128" width="32" height="32" fill="#847E87" />
<rect x="704" y="128" width="32" height="32" fill="#847E87" />
<rect x="224" y="160" width="32" height="32" fill="#847E87" />
<rect x="256" y="160" width="32" height="32" fill="#847E87" />
<rect x="288" y="160" width="32" height="32" fill="#847E87" />
<rect x="320" y="160" width="32" height="32" fill="#847E87" />
<rect x="352" y="160" width="32" height="32" fill="#847E87" />
<rect x="384" y="160" width="32" height="32" fill="#847E87" />
<rect x="416" y="160" width="32" height="32" fill="#847E87" />
<rect x="448" y="160" width="32" height="32" fill="#847E87" />
<rect x="480" y="160" width="32" height="32" fill="#847E87" />
<rect x="512" y="160" width="32" height="32" fill="#847E87" />
<rect x="192" y="192" width="32" height="32" fill="#847E87" />
<rect x="224" y="192" width="32" height="32" fill="#847E87" />
<rect x="256" y="192" width="32" height="32" fill="#847E87" />
<rect x="288" y="192" width="32" height="32" fill="#847E87" />
<rect x="320" y="192" width="32" height="32" fill="#847E87" />
<rect x="352" y="192" width="32" height="32" fill="#847E87" />
<rect x="384" y="192" width="32" height="32" fill="#847E87" />
<rect x="416" y="192" width="32" height="32" fill="#847E87" />
<rect x="448" y="192" width="32" height="32" fill="#847E87" />
<rect x="192" y="224" width="32" height="32" fill="#847E87" />
<rect x="224" y="224" width="32" height="32" fill="#847E87" />
<rect x="256" y="224" width="32" height="32" fill="#847E87" />
<rect x="288" y="224" width="32" height="32" fill="#847E87" />
<rect x="320" y="224" width="32" height="32" fill="#847E87" />
<rect x="352" y="224" width="32" height="32" fill="#847E87" />
<rect x="384" y="224" width="32" height="32" fill="#847E87" />
<rect x="416" y="224" width="32" height="32" fill="#847E87" />
<rect x="768" y="224" width="32" height="32" fill="#847E87" />
<rect x="160" y="256" width="32" height="32" fill="#847E87" />
<rect x="192" y="256" width="32" height="32" fill="#847E87" />
<rect x="224" y="256" width="32" height="32" fill="#847E87" />
<rect x="256" y="256" width="32" height="32" fill="#847E87" />
<rect x="288" y="256" width="32" height="32" fill="#847E87" />
<rect x="320" y="256" width="32" height="32" fill="#847E87" />
<rect x="352" y="256" width="32" height="32" fill="#847E87" />
<rect x="384" y="256" width="32" height="32" fill="#847E87" />
<rect x="544" y="256" width="32" height="32" fill="#847E87" />
<rect x="576" y="256" width="32" height="32" fill="#847E87" />
<rect x="800" y="256" width="32" height="32" fill="#847E87" />
<rect x="160" y="288" width="32" height="32" fill="#847E87" />
<rect x="192" y="288" width="32" height="32" fill="#847E87" />
<rect x="224" y="288" width="32" height="32" fill="#847E87" />
<rect x="256" y="288" width="32" height="32" fill="#847E87" />
<rect x="288" y="288" width="32" height="32" fill="#847E87" />
<rect x="320" y="288" width="32" height="32" fill="#847E87" />
<rect x="352" y="288" width="32" height="32" fill="#847E87" />
<rect x="384" y="288" width="32" height="32" fill="#847E87" />
<rect x="512" y="288" width="32" height="32" fill="#847E87" />
<rect x="544" y="288" width="32" height="32" fill="#847E87" />
<rect x="576" y="288" width="32" height="32" fill="#847E87" />
<rect x="608" y="288" width="32" height="32" fill="#847E87" />
<rect x="768" y="288" width="32" height="32" fill="#847E87" />
<rect x="800" y="288" width="32" height="32" fill="#847E87" />
<rect x="832" y="288" width="32" height="32" fill="#847E87" />
<rect x="160" y="320" width="32" height="32" fill="#847E87" />
<rect x="192" y="320" width="32" height="32" fill="#847E87" />
<rect x="224" y="320" width="32" height="32" fill="#847E87" />
<rect x="256" y="320" width="32" height="32" fill="#847E87" />
<rect x="288" y="320" width="32" height="32" fill="#847E87" />
<rect x="320" y="320" width="32" height="32" fill="#847E87" />
<rect x="352" y="320" width="32" height="32" fill="#847E87" />
<rect x="384" y="320" width="32" height="32" fill="#847E87" />
<rect x="480" y="320" width="32" height="32" fill="#847E87" />
<rect x="512" y="320" width="32" height="32" fill="#847E87" />
<rect x="544" y="320" width="32" height="32" fill="#847E87" />
<rect x="576" y="320" width="32" height="32" fill="#847E87" />
<rect x="608" y="320" width="32" height="32" fill="#847E87" />
<rect x="640" y="320" width="32" height="32" fill="#847E87" />
<rect x="768" y="320" width="32" height="32" fill="#847E87" />
<rect x="800" y="320" width="32" height="32" fill="#847E87" />
<rect x="832" y="320" width="32" height="32" fill="#847E87" />
<rect x="128" y="352" width="32" height="32" fill="#847E87" />
<rect x="160" y="352" width="32" height="32" fill="#847E87" />
<rect x="192" y="352" width="32" height="32" fill="#847E87" />
<rect x="224" y="352" width="32" height="32" fill="#847E87" />
<rect x="256" y="352" width="32" height="32" fill="#847E87" />
<rect x="288" y="352" width="32" height="32" fill="#847E87" />
<rect x="320" y="352" width="32" height="32" fill="#847E87" />
<rect x="352" y="352" width="32" height="32" fill="#847E87" />
<rect x="384" y="352" width="32" height="32" fill="#847E87" />
<rect x="480" y="352" width="32" height="32" fill="#847E87" />
<rect x="512" y="352" width="32" height="32" fill="#847E87" />
<rect x="544" y="352" width="32" height="32" fill="#847E87" />
<rect x="576" y="352" width="32" height="32" fill="#847E87" />
<rect x="608" y="352" width="32" height="32" fill="#847E87" />
<rect x="640" y="352" width="32" height="32" fill="#847E87" />
<rect x="768" y="352" width="32" height="32" fill="#847E87" />
<rect x="800" y="352" width="32" height="32" fill="#847E87" />
<rect x="832" y="352" width="32" height="32" fill="#847E87" />
<rect x="128" y="384" width="32" height="32" fill="#847E87" />
<rect x="160" y="384" width="32" height="32" fill="#847E87" />
<rect x="192" y="384" width="32" height="32" fill="#847E87" />
<rect x="224" y="384" width="32" height="32" fill="#847E87" />
<rect x="256" y="384" width="32" height="32" fill="#847E87" />
<rect x="288" y="384" width="32" height="32" fill="#847E87" />
<rect x="320" y="384" width="32" height="32" fill="#847E87" />
<rect x="352" y="384" width="32" height="32" fill="#847E87" />
<rect x="384" y="384" width="32" height="32" fill="#847E87" />
<rect x="512" y="384" width="32" height="32" fill="#847E87" />
<rect x="544" y="384" width="32" height="32" fill="#847E87" />
<rect x="576" y="384" width="32" height="32" fill="#847E87" />
<rect x="608" y="384" width="32" height="32" fill="#847E87" />
<rect x="768" y="384" width="32" height="32" fill="#847E87" />
<rect x="800" y="384" width="32" height="32" fill="#847E87" />
<rect x="832" y="384" width="32" height="32" fill="#847E87" />
<rect x="864" y="384" width="32" height="32" fill="#847E87" />
<rect x="128" y="416" width="32" height="32" fill="#847E87" />
<rect x="160" y="416" width="32" height="32" fill="#847E87" />
<rect x="192" y="416" width="32" height="32" fill="#847E87" />
<rect x="224" y="416" width="32" height="32" fill="#847E87" />
<rect x="256" y="416" width="32" height="32" fill="#847E87" />
<rect x="288" y="416" width="32" height="32" fill="#847E87" />
<rect x="320" y="416" width="32" height="32" fill="#847E87" />
<rect x="352" y="416" width="32" height="32" fill="#847E87" />
<rect x="384" y="416" width="32" height="32" fill="#847E87" />
<rect x="544" y="416" width="32" height="32" fill="#847E87" />
<rect x="576" y="416" width="32" height="32" fill="#847E87" />
<rect x="768" y="416" width="32" height="32" fill="#847E87" />
<rect x="800" y="416" width="32" height="32" fill="#847E87" />
<rect x="832" y="416" width="32" height="32" fill="#847E87" />
<rect x="864" y="416" width="32" height="32" fill="#847E87" />
<rect x="128" y="448" width="32" height="32" fill="#847E87" />
<rect x="160" y="448" width="32" height="32" fill="#847E87" />
<rect x="192" y="448" width="32" height="32" fill="#847E87" />
<rect x="224" y="448" width="32" height="32" fill="#847E87" />
<rect x="256" y="448" width="32" height="32" fill="#847E87" />
<rect x="288" y="448" width="32" height="32" fill="#847E87" />
<rect x="320" y="448" width="32" height="32" fill="#847E87" />
<rect x="352" y="448" width="32" height="32" fill="#847E87" />
<rect x="384" y="448" width="32" height="32" fill="#847E87" />
<rect x="736" y="448" width="32" height="32" fill="#847E87" />
<rect x="768" y="448" width="32" height="32" fill="#847E87" />
<rect x="800" y="448" width="32" height="32" fill="#847E87" />
<rect x="832" y="448" width="32" height="32" fill="#847E87" />
<rect x="864" y="448" width="32" height="32" fill="#847E87" />
<rect x="224" y="480" width="32" height="32" fill="#847E87" />
<rect x="256" y="480" width="32" height="32" fill="#847E87" />
<rect x="288" y="480" width="32" height="32" fill="#847E87" />
<rect x="320" y="480" width="32" height="32" fill="#847E87" />
<rect x="352" y="480" width="32" height="32" fill="#847E87" />
<rect x="384" y="480" width="32" height="32" fill="#847E87" />
<rect x="416" y="480" width="32" height="32" fill="#847E87" />
<rect x="704" y="480" width="32" height="32" fill="#847E87" />
<rect x="736" y="480" width="32" height="32" fill="#847E87" />
<rect x="768" y="480" width="32" height="32" fill="#847E87" />
<rect x="800" y="480" width="32" height="32" fill="#847E87" />
<rect x="832" y="480" width="32" height="32" fill="#847E87" />
<rect x="864" y="480" width="32" height="32" fill="#847E87" />
<rect x="128" y="512" width="32" height="32" fill="#847E87" />
<rect x="320" y="512" width="32" height="32" fill="#847E87" />
<rect x="352" y="512" width="32" height="32" fill="#847E87" />
<rect x="384" y="512" width="32" height="32" fill="#847E87" />
<rect x="416" y="512" width="32" height="32" fill="#847E87" />
<rect x="704" y="512" width="32" height="32" fill="#847E87" />
<rect x="736" y="512" width="32" height="32" fill="#847E87" />
<rect x="768" y="512" width="32" height="32" fill="#847E87" />
<rect x="800" y="512" width="32" height="32" fill="#847E87" />
<rect x="832" y="512" width="32" height="32" fill="#847E87" />
<rect x="864" y="512" width="32" height="32" fill="#847E87" />
<rect x="128" y="544" width="32" height="32" fill="#847E87" />
<rect x="160" y="544" width="32" height="32" fill="#847E87" />
<rect x="192" y="544" width="32" height="32" fill="#847E87" />
<rect x="384" y="544" width="32" height="32" fill="#847E87" />
<rect x="416" y="544" width="32" height="32" fill="#847E87" />
<rect x="448" y="544" width="32" height="32" fill="#847E87" />
<rect x="640" y="544" width="32" height="32" fill="#847E87" />
<rect x="672" y="544" width="32" height="32" fill="#847E87" />
<rect x="704" y="544" width="32" height="32" fill="#847E87" />
<rect x="736" y="544" width="32" height="32" fill="#847E87" />
<rect x="768" y="544" width="32" height="32" fill="#847E87" />
<rect x="800" y="544" width="32" height="32" fill="#847E87" />
<rect x="832" y="544" width="32" height="32" fill="#847E87" />
<rect x="864" y="544" width="32" height="32" fill="#847E87" />
<rect x="128" y="576" width="32" height="32" fill="#847E87" />
<rect x="160" y="576" width="32" height="32" fill="#847E87" />
<rect x="192" y="576" width="32" height="32" fill="#847E87" />
<rect x="224" y="576" width="32" height="32" fill="#847E87" />
<rect x="256" y="576" width="32" height="32" fill="#847E87" />
<rect x="608" y="576" width="32" height="32" fill="#847E87" />
<rect x="640" y="576" width="32" height="32" fill="#847E87" />
<rect x="672" y="576" width="32" height="32" fill="#847E87" />
<rect x="704" y="576" width="32" height="32" fill="#847E87" />
<rect x="736" y="576" width="32" height="32" fill="#847E87" />
<rect x="768" y="576" width="32" height="32" fill="#847E87" />
<rect x="800" y="576" width="32" height="32" fill="#847E87" />
<rect x="832" y="576" width="32" height="32" fill="#847E87" />
<rect x="160" y="608" width="32" height="32" fill="#847E87" />
<rect x="192" y="608" width="32" height="32" fill="#847E87" />
<rect x="224" y="608" width="32" height="32" fill="#847E87" />
<rect x="256" y="608" width="32" height="32" fill="#847E87" />
<rect x="288" y="608" width="32" height="32" fill="#847E87" />
<rect x="320" y="608" width="32" height="32" fill="#847E87" />
<rect x="352" y="608" width="32" height="32" fill="#847E87" />
<rect x="384" y="608" width="32" height="32" fill="#847E87" />
<rect x="544" y="608" width="32" height="32" fill="#847E87" />
<rect x="576" y="608" width="32" height="32" fill="#847E87" />
<rect x="608" y="608" width="32" height="32" fill="#847E87" />
<rect x="640" y="608" width="32" height="32" fill="#847E87" />
<rect x="672" y="608" width="32" height="32" fill="#847E87" />
<rect x="704" y="608" width="32" height="32" fill="#847E87" />
<rect x="736" y="608" width="32" height="32" fill="#847E87" />
<rect x="768" y="608" width="32" height="32" fill="#847E87" />
<rect x="800" y="608" width="32" height="32" fill="#847E87" />
<rect x="832" y="608" width="32" height="32" fill="#847E87" />
<rect x="192" y="640" width="32" height="32" fill="#847E87" />
<rect x="224" y="640" width="32" height="32" fill="#847E87" />
<rect x="256" y="640" width="32" height="32" fill="#847E87" />
<rect x="288" y="640" width="32" height="32" fill="#847E87" />
<rect x="320" y="640" width="32" height="32" fill="#847E87" />
<rect x="352" y="640" width="32" height="32" fill="#847E87" />
<rect x="384" y="640" width="32" height="32" fill="#847E87" />
<rect x="416" y="640" width="32" height="32" fill="#847E87" />
<rect x="448" y="640" width="32" height="32" fill="#847E87" />
<rect x="480" y="640" width="32" height="32" fill="#847E87" />
<rect x="512" y="640" width="32" height="32" fill="#847E87" />
<rect x="544" y="640" width="32" height="32" fill="#847E87" />
<rect x="576" y="640" width="32" height="32" fill="#847E87" />
<rect x="608" y="640" width="32" height="32" fill="#847E87" />
<rect x="640" y="640" width="32" height="32" fill="#847E87" />
<rect x="672" y="640" width="32" height="32" fill="#847E87" />
<rect x="704" y="640" width="32" height="32" fill="#847E87" />
<rect x="736" y="640" width="32" height="32" fill="#847E87" />
<rect x="768" y="640" width="32" height="32" fill="#847E87" />
<rect x="800" y="640" width="32" height="32" fill="#847E87" />
<rect x="192" y="672" width="32" height="32" fill="#847E87" />
<rect x="224" y="672" width="32" height="32" fill="#847E87" />
<rect x="256" y="672" width="32" height="32" fill="#847E87" />
<rect x="288" y="672" width="32" height="32" fill="#847E87" />
<rect x="320" y="672" width="32" height="32" fill="#847E87" />
<rect x="352" y="672" width="32" height="32" fill="#847E87" />
<rect x="384" y="672" width="32" height="32" fill="#847E87" />
<rect x="416" y="672" width="32" height="32" fill="#847E87" />
<rect x="448" y="672" width="32" height="32" fill="#847E87" />
<rect x="480" y="672" width="32" height="32" fill="#847E87" />
<rect x="512" y="672" width="32" height="32" fill="#847E87" />
<rect x="544" y="672" width="32" height="32" fill="#847E87" />
<rect x="576" y="672" width="32" height="32" fill="#847E87" />
<rect x="608" y="672" width="32" height="32" fill="#847E87" />
<rect x="640" y="672" width="32" height="32" fill="#847E87" />
<rect x="672" y="672" width="32" height="32" fill="#847E87" />
<rect x="704" y="672" width="32" height="32" fill="#847E87" />
<rect x="736" y="672" width="32" height="32" fill="#847E87" />
<rect x="768" y="672" width="32" height="32" fill="#847E87" />
<rect x="800" y="672" width="32" height="32" fill="#847E87" />
<rect x="192" y="704" width="32" height="32" fill="#847E87" />
<rect x="224" y="704" width="32" height="32" fill="#847E87" />
<rect x="256" y="704" width="32" height="32" fill="#847E87" />
<rect x="288" y="704" width="32" height="32" fill="#847E87" />
<rect x="320" y="704" width="32" height="32" fill="#847E87" />
<rect x="352" y="704" width="32" height="32" fill="#847E87" />
<rect x="384" y="704" width="32" height="32" fill="#847E87" />
<rect x="416" y="704" width="32" height="32" fill="#847E87" />
<rect x="448" y="704" width="32" height="32" fill="#847E87" />
<rect x="480" y="704" width="32" height="32" fill="#847E87" />
<rect x="512" y="704" width="32" height="32" fill="#847E87" />
<rect x="544" y="704" width="32" height="32" fill="#847E87" />
<rect x="576" y="704" width="32" height="32" fill="#847E87" />
<rect x="608" y="704" width="32" height="32" fill="#847E87" />
<rect x="640" y="704" width="32" height="32" fill="#847E87" />
<rect x="672" y="704" width="32" height="32" fill="#847E87" />
<rect x="704" y="704" width="32" height="32" fill="#847E87" />
<rect x="736" y="704" width="32" height="32" fill="#847E87" />
<rect x="768" y="704" width="32" height="32" fill="#847E87" />
<rect x="224" y="736" width="32" height="32" fill="#847E87" />
<rect x="256" y="736" width="32" height="32" fill="#847E87" />
<rect x="288" y="736" width="32" height="32" fill="#847E87" />
<rect x="320" y="736" width="32" height="32" fill="#847E87" />
<rect x="352" y="736" width="32" height="32" fill="#847E87" />
<rect x="384" y="736" width="32" height="32" fill="#847E87" />
<rect x="416" y="736" width="32" height="32" fill="#847E87" />
<rect x="448" y="736" width="32" height="32" fill="#847E87" />
<rect x="480" y="736" width="32" height="32" fill="#847E87" />
<rect x="512" y="736" width="32" height="32" fill="#847E87" />
<rect x="544" y="736" width="32" height="32" fill="#847E87" />
<rect x="576" y="736" width="32" height="32" fill="#847E87" />
<rect x="608" y="736" width="32" height="32" fill="#847E87" />
<rect x="640" y="736" width="32" height="32" fill="#847E87" />
<rect x="672" y="736" width="32" height="32" fill="#847E87" />
<rect x="704" y="736" width="32" height="32" fill="#847E87" />
<rect x="736" y="736" width="32" height="32" fill="#847E87" />
<rect x="256" y="768" width="32" height="32" fill="#847E87" />
<rect x="288" y="768" width="32" height="32" fill="#847E87" />
<rect x="320" y="768" width="32" height="32" fill="#847E87" />
<rect x="352" y="768" width="32" height="32" fill="#847E87" />
<rect x="384" y="768" width="32" height="32" fill="#847E87" />
<rect x="416" y="768" width="32" height="32" fill="#847E87" />
<rect x="448" y="768" width="32" height="32" fill="#847E87" />
<rect x="480" y="768" width="32" height="32" fill="#847E87" />
<rect x="512" y="768" width="32" height="32" fill="#847E87" />
<rect x="544" y="768" width="32" height="32" fill="#847E87" />
<rect x="576" y="768" width="32" height="32" fill="#847E87" />
<rect x="608" y="768" width="32" height="32" fill="#847E87" />
<rect x="640" y="768" width="32" height="32" fill="#847E87" />
<rect x="672" y="768" width="32" height="32" fill="#847E87" />
<rect x="704" y="768" width="32" height="32" fill="#847E87" />
<rect x="256" y="800" width="32" height="32" fill="#847E87" />
<rect x="288" y="800" width="32" height="32" fill="#847E87" />
<rect x="320" y="800" width="32" height="32" fill="#847E87" />
<rect x="352" y="800" width="32" height="32" fill="#847E87" />
<rect x="384" y="800" width="32" height="32" fill="#847E87" />
<rect x="416" y="800" width="32" height="32" fill="#847E87" />
<rect x="448" y="800" width="32" height="32" fill="#847E87" />
<rect x="480" y="800" width="32" height="32" fill="#847E87" />
<rect x="512" y="800" width="32" height="32" fill="#847E87" />
<rect x="544" y="800" width="32" height="32" fill="#847E87" />
<rect x="576" y="800" width="32" height="32" fill="#847E87" />
<rect x="608" y="800" width="32" height="32" fill="#847E87" />
<rect x="640" y="800" width="32" height="32" fill="#847E87" />
<rect x="672" y="800" width="32" height="32" fill="#847E87" />
<rect x="288" y="832" width="32" height="32" fill="#847E87" />
<rect x="320" y="832" width="32" height="32" fill="#847E87" />
<rect x="352" y="832" width="32" height="32" fill="#847E87" />
<rect x="384" y="832" width="32" height="32" fill="#847E87" />
<rect x="416" y="832" width="32" height="32" fill="#847E87" />
<rect x="448" y="832" width="32" height="32" fill="#847E87" />
<rect x="480" y="832" width="32" height="32" fill="#847E87" />
<rect x="512" y="832" width="32" height="32" fill="#847E87" />
<rect x="544" y="832" width="32" height="32" fill="#847E87" />
<rect x="576" y="832" width="32" height="32" fill="#847E87" />
<rect x="608" y="832" width="32" height="32" fill="#847E87" />
<rect x="640" y="832" width="32" height="32" fill="#847E87" />
<rect x="320" y="864" width="32" height="32" fill="#847E87" />
<rect x="352" y="864" width="32" height="32" fill="#847E87" />
<rect x="384" y="864" width="32" height="32" fill="#847E87" />
<rect x="416" y="864" width="32" height="32" fill="#847E87" />
<rect x="448" y="864" width="32" height="32" fill="#847E87" />
<rect x="480" y="864" width="32" height="32" fill="#847E87" />
<rect x="512" y="864" width="32" height="32" fill="#847E87" />
<rect x="544" y="864" width="32" height="32" fill="#847E87" />
<rect x="576" y="864" width="32" height="32" fill="#847E87" />
<rect x="608" y="864" width="32" height="32" fill="#847E87" />
<rect x="320" y="896" width="32" height="32" fill="#847E87" />
<rect x="352" y="896" width="32" height="32" fill="#847E87" />
<rect x="384" y="896" width="32" height="32" fill="#847E87" />
<rect x="416" y="896" width="32" height="32" fill="#847E87" />
<rect x="448" y="896" width="32" height="32" fill="#847E87" />
<rect x="480" y="896" width="32" height="32" fill="#847E87" />
<rect x="512" y="896" width="32" height="32" fill="#847E87" />
<rect x="544" y="896" width="32" height="32" fill="#847E87" />
<rect x="384" y="928" width="32" height="32" fill="#847E87" />
<rect x="416" y="928" width="32" height="32" fill="#847E87" />
<rect x="448" y="928" width="32" height="32" fill="#847E87" />
</svg>