<?xml version="1.0" encoding="UTF-8" ?>
<svg version="1.1" width="1800" height="1800" xmlns="http://www.w3.org/2000/svg" shape-rendering="crispEdges">
<rect x="900" y="120" width="60" height="60" fill="#847E87" />
<rect x="960" y="120" width="60" height="60" fill="#847E87" />
<rect x="1020" y="120" width="60" height="60" fill="#847E87" />
<rect x="1080" y="120" width="60" height="60" fill="#847E87" />
<rect x="1140" y="120" width="60" height="60" fill="#847E87" />
<rect x="720" y="180" width="60" height="60" fill="#847E87" />
<rect x="780" y="180" width="60" height="60" fill="#847E87" />
<rect x="840" y="180" width="60" height="60" fill="#847E87" />
<rect x="900" y="180" width="60" height="60" fill="#847E87" />
<rect x="960" y="180" width="60" height="60" fill="#847E87" />
<rect x="1020" y="180" width="60" height="60" fill="#847E87" />
<rect x="1080" y="180" width="60" height="60" fill="#847E87" />
<rect x="1140" y="180" width="60" height="60" fill="#847E87" />
<rect x="1200" y="180" width="60" height="60" fill="#847E87" />
<rect x="1260" y="180" width="60" height="60" fill="#847E87" />
<rect x="540" y="240" width="60" height="60" fill="#847E87" />
<rect x="600" y="240" width="60" height="60" fill="#847E87" />
<rect x="660" y="240" width="60" height="60" fill="#847E87" />
<rect x="720" y="240" width="60" height="60" fill="#847E87" />
<rect x="780" y="240" width="60" height="60" fill="#847E87" />
<rect x="840" y="240" width="60" height="60" fill="#847E87" />
<rect x="900" y="240" width="60" height="60" fill="#847E87" />
<rect x="960" y="240" width="60" height="60" fill="#847E87" />
<rect x="1020" y="240" width="60" height="60" fill="#847E87" />
<rect x="1080" y="240" width="60" height="60" fill="#847E87" />
<rect x="1140" y="240" width="60" height="60" fill="#847E87" />
<rect x="1200" y="240" width="60" height="60" fill="#847E87" />
<rect x="1260" y="240" width="60" height="60" fill="#847E87" />
<rect x="1320" y="240" width="60" height="60" fill="#847E87" />
<rect x="420" y="300" width="60" height="60" fill="#847E87" />
<rect x="480" y="300" width="60" height="60" fill="#847E87" />
<rect x="540" y="300" width="60" height="60" fill="#847E87" />
<rect x="600" y="300" width="60" height="60" fill="#847E87" />
<rect x="660" y="300" width="60" height="60" fill="#847E87" />
<rect x="720" y="300" width="60" height="60" fill="#847E87" />
<rect x="780" y="300" width="60" height="60" fill="#847E87" />
<rect x="840" y="300" width="60" height="60" fill="#847E87" />
<rect x="900" y="300" width="60" height="60" fill="#847E87" />
<rect x="960" y="300" width="60" height="60" fill="#847E87" />
<rect x="360" y="360" width="60" height="60" fill="#847E87" />
<rect x="420" y="360" width="60" height="60" fill="#847E87" />
<rect x="480" y="360" width="60" height="60" fill="#847E87" />
<rect x="540" y="360" width="60" height="60" fill="#847E87" />
<rect x="600" y="360" width="60" height="60" fill="#847E87" />
<rect x="660" y="360" width="60" height="60" fill="#847E87" />
<rect x="720" y="360" width="60" height="60" fill="#847E87" />
<rect x="780" y="360" width="60" height="60" fill="#847E87" />
<rect x="840" y="360" width="60" height="60" fill="#847E87" />
<rect x="360" y="420" width="60" height="60" fill="#847E87" />
<rect x="420" y="420" width="60" height="60" fill="#847E87" />
<rect x="480" y="420" width="60" height="60" fill="#847E87" />
<rect x="540" y="420" width="60" height="60" fill="#847E87" />
<rect x="600" y="420" width="60" height="60" fill="#847E87" />
<rect x="660" y="420" width="60" height="60" fill="#847E87" />
<rect x="720" y="420" width="60" height="60" fill="#847E87" />
<rect x="780" y="420" width="60" height="60" fill="#847E87" />
<rect x="1440" y="420" width="60" height="60" fill="#847E87" />
<rect x="300" y="480" width="60" height="60" fill="#847E87" />
<rect x="360" y="480" width="60" height="60" fill="#847E87" />
<rect x="420" y="480" width="60" height="60" fill="#847E87" />
<rect x="480" y="480" width="60" height="60" fill="#847E87" />
<rect x="540" y="480" width="60" height="60" fill="#847E87" />
<rect x="600" y="480" width="60" height="60" fill="#847E87" />
<rect x="660" y="480" width="60" height="60" fill="#847E87" />
<rect x="720" y="480" width="60" height="60" fill="#847E87" />
<rect x="1020" y="480" width="60" height="60" fill="#847E87" />
<rect x="1080" y="480" width="60" height="60" fill="#847E87" />
<rect x="1500" y="480" width="60" height="60" fill="#847E87" />
<rect x="300" y="540" width="60" height="60" fill="#847E87" />
<rect x="360" y="540" width="60" height="60" fill="#847E87" />
<rect x="420" y="540" width="60" height="60" fill="#847E87" />
<rect x="480" y="540" width="60" height="60" fill="#847E87" />
<rect x="540" y="540" width="60" height="60" fill="#847E87" />
<rect x="600" y="540" width="60" height="60" fill="#847E87" />
<rect x="660" y="540" width="60" height="60" fill="#847E87" />
<rect x="720" y="540" width="60" height="60" fill="#847E87" />
<rect x="960" y="540" width="60" height="60" fill="#847E87" />
<rect x="1020" y="540" width="60" height="60" fill="#847E87" />
<rect x="1080" y="540" width="60" height="60" fill="#847E87" />
<rect x="1140" y="540" width="60" height="60" fill="#847E87" />
<rect x="1440" y="540" width="60" height="60" fill="#847E87" />
<rect x="1500" y="540" width="60" height="60" fill="#847E87" />
<rect x="1560" y="540" width="60" height="60" fill="#847E87" />
<rect x="300" y="600" width="60" height="60" fill="#847E87" />
<rect x="360" y="600" width="60" height="60" fill="#847E87" />
<rect x="420" y="600" width="60" height="60" fill="#847E87" />
<rect x="480" y="600" width="60" height="60" fill="#847E87" />
<rect x="540" y="600" width="60" height="60" fill="#847E87" />
<rect x="600" y="600" width="60" height="60" fill="#847E87" />
<rect x="660" y="600" width="60" height="60" fill="#847E87" />
<rect x="720" y="600" width="60" height="60" fill="#847E87" />
<rect x="900" y="600" width="60" height="60" fill="#847E87" />
<rect x="960" y="600" width="60" height="60" fill="#847E87" />
<rect x="1020" y="600" width="60" height="60" fill="#847E87" />
<rect x="1080" y="600" width="60" height="60" fill="#847E87" />
<rect x="1140" y="600" width="60" height="60" fill="#847E87" />
<rect x="1200" y="600" width="60" height="60" fill="#847E87" />
<rect x="1440" y="600" width="60" height="60" fill="#847E87" />
<rect x="1500" y="600" width="60" height="60" fill="#847E87" />
<rect x="1560" y="600" width="60" height="60" fill="#847E87" />
<rect x="240" y="660" width="60" height="60" fill="#847E87" />
<rect x="300" y="660" width="60" height="60" fill="#847E87" />
<rect x="360" y="660" width="60" height="60" fill="#847E87" />
<rect x="420" y="660" width="60" height="60" fill="#847E87" />
<rect x="480" y="660" width="60" height="60" fill="#847E87" />
<rect x="540" y="660" width="60" height="60" fill="#847E87" />
<rect x="600" y="660" width="60" height="60" fill="#847E87" />
<rect x="660" y="660" width="60" height="60" fill="#847E87" />
<rect x="720" y="660" width="60" height="60" fill="#847E87" />
<rect x="900" y="660" width="60" height="60" fill="#847E87" />
<rect x="960" y="660" width="60" height="60" fill="#847E87" />
<rect x="1020" y="660" width="60" height="60" fill="#847E87" />
<rect x="1080" y="660" width="60" height="60" fill="#847E87" />
<rect x="1140" y="660" width="60" height="60" fill="#847E87" />
<rect x="1200" y="660" width="60" height="60" fill="#847E87" />
<rect x="1440" y="660" width="60" height="60" fill="#847E87" />
<rect x="1500" y="660" width="60" height="60" fill="#847E87" />
<rect x="1560" y="660" width="60" height="60" fill="#847E87" />
<rect x="240" y="720" width="60" height="60" fill="#847E87" />
<rect x="300" y="720" width="60" height="60" fill="#847E87" />
<rect x="360" y="720" width="60" height="60" fill="#847E87" />
<rect x="420" y="720" width="60" height="60" fill="#847E87" />
<rect x="480" y="720" width="60" height="60" fill="#847E87" />
<rect x="540" y="720" width="60" height="60" fill="#847E87" />
<rect x="600" y="720" width="60" height="60" fill="#847E87" />
<rect x="660" y="720" width="60" height="60" fill="#847E87" />
<rect x="720" y="720" width="60" height="60" fill="#847E87" />
<rect x="960" y="720" width="60" height="60" fill="#847E87" />
<rect x="1020" y="720" width="60" height="60" fill="#847E87" />
<rect x="1080" y="720" width="60" height="60" fill="#847E87" />
<rect x="1140" y="720" width="60" height="60" fill="#847E87" />
<rect x="1440" y="720" width="60" height="60" fill="#847E87" />
<rect x="1500" y="720" width="60" height="60" fill="#847E87" />
<rect x="1560" y="720" width="60" height="60" fill="#847E87" />
<rect x="1620" y="720" width="60" height="60" fill="#847E87" />
<rect x="240" y="780" width="60" height="60" fill="#847E87" />
<rect x="300" y="780" width="60" height="60" fill="#847E87" />
<rect x="360" y="780" width="60" height="60" fill="#847E87" />
<rect x="420" y="780" width="60" height="60" fill="#847E87" />
<rect x="480" y="780" width="60" height="60" fill="#847E87" />
<rect x="540" y="780" width="60" height="60" fill="#847E87" />
<rect x="600" y="780" width="60" height="60" fill="#847E87" />
<rect x="660" y="780" width="60" height="60" fill="#847E87" />
<rect x="720" y="780" width="60" height="60" fill="#847E87" />
<rect x="1020" y="780" width="60" height="60" fill="#847E87" />
<rect x="1080" y="780" width="60" height="60" fill="#847E87" />
<rect x="1440" y="780" width="60" height="60" fill="#847E87" />
<rect x="1500" y="780" width="60" height="60" fill="#847E87" />
<rect x="1560" y="780" width="60" height="60" fill="#847E87" />
<rect x="1620" y="780" width="60" height="60" fill="#847E87" />
<rect x="240" y="840" width="60" height="60" fill="#847E87" />
<rect x="300" y="840" width="60" height="60" fill="#847E87" />
<rect x="360" y="840" width="60" height="60" fill="#847E87" />
<rect x="420" y="840" width="60" height="60" fill="#847E87" />
<rect x="480" y="840" width="60" height="60" fill="#847E87" />
<rect x="540" y="840" width="60" height="60" fill="#847E87" />
<rect x="600" y="840" width="60" height="60" fill="#847E87" />
<rect x="660" y="840" width="60" height="60" fill="#847E87" />
<rect x="720" y="840" width="60" height="60" fill="#847E87" />
<rect x="1380" y="840" width="60" height="60" fill="#847E87" />
<rect x="1440" y="840" width="60" height="60" fill="#847E87" />
<rect x="1500" y="840" width="60" height="60" fill="#847E87" />
<rect x="1560" y="840" width="60" height="60" fill="#847E87" />
<rect x="1620" y="840" width="60" height="60" fill="#847E87" />
<rect x="420" y="900" width="60" height="60" fill="#847E87" />
<rect x="480" y="900" width="60" height="60" fill="#847E87" />
<rect x="540" y="900" width="60" height="60" fill="#847E87" />
<rect x="600" y="900" width="60" height="60" fill="#847E87" />
<rect x="660" y="900" width="60" height="60" fill="#847E87" />
<rect x="720" y="900" width="60" height="60" fill="#847E87" />
<rect x="780" y="900" width="60" height="60" fill="#847E87" />
<rect x="1320" y="900" width="60" height="60" fill="#847E87" />
<rect x="1380" y="900" width="60" height="60" fill="#847E87" />
<rect x="1440" y="900" width="60" height="60" fill="#847E87" />
<rect x="1500" y="900" width="60" height="60" fill="#847E87" />
<rect x="1560" y="900" width="60" height="60" fill="#847E87" />
<rect x="1620" y="900" width="60" height="60" fill="#847E87" />
<rect x="240" y="960" width="60" height="60" fill="#847E87" />
<rect x="600" y="960" width="60" height="60" fill="#847E87" />
<rect x="660" y="960" width="60" height="60" fill="#847E87" />
<rect x="720" y="960" width="60" height="60" fill="#847E87" />
<rect x="780" y="960" width="60" height="60" fill="#847E87" />
<rect x="1320" y="960" width="60" height="60" fill="#847E87" />
<rect x="1380" y="960" width="60" height="60" fill="#847E87" />
<rect x="1440" y="960" width="60" height="60" fill="#847E87" />
<rect x="1500" y="960" width="60" height="60" fill="#847E87" />
<rect x="1560" y="960" width="60" height="60" fill="#847E87" />
<rect x="1620" y="960" width="60" height="60" fill="#847E87" />
<rect x="240" y="1020" width="60" height="60" fill="#847E87" />
<rect x="300" y="1020" width="60" height="60" fill="#847E87" />
<rect x="360" y="1020" width="60" height="60" fill="#847E87" />
<rect x="720" y="1020" width="60" height="60" fill="#847E87" />
<rect x="780" y="1020" width="60" height="60" fill="#847E87" />
<rect x="840" y="1020" width="60" height="60" fill="#847E87" />
<rect x="1200" y="1020" width="60" height="60" fill="#847E87" />
<rect x="1260" y="1020" width="60" height="60" fill="#847E87" />
<rect x="1320" y="1020" width="60" height="60" fill="#847E87" />
<rect x="1380" y="1020" width="60" height="60" fill="#847E87" />
<rect x="1440" y="1020" width="60" height="60" fill="#847E87" />
<rect x="1500" y="1020" width="60" height="60" fill="#847E87" />
<rect x="1560" y="1020" width="60" height="60" fill="#847E87" />
<rect x="1620" y="1020" width="60" height="60" fill="#847E87" />
<rect x="240" y="1080" width="60" height="60" fill="#847E87" />
<rect x="300" y="1080" width="60" height="60" fill="#847E87" />
<rect x="360" y="1080" width="60" height="60" fill="#847E87" />
<rect x="420" y="1080" width="60" height="60" fill="#847E87" />
<rect x="480" y="1080" width="60" height="60" fill="#847E87" />
<rect x="1140" y="1080" width="60" height="60" fill="#847E87" />
<rect x="1200" y="1080" width="60" height="60" fill="#847E87" />
<rect x="1260" y="1080" width="60" height="60" fill="#847E87" />
<rect x="1320" y="1080" width="60" height="60" fill="#847E87" />
<rect x="1380" y="1080" width="60" height="60" fill="#847E87" />
<rect x="1440" y="1080" width="60" height="60" fill="#847E87" />
<rect x="1500" y="1080" width="60" height="60" fill="#847E87" />
<rect x="1560" y="1080" width="60" height="60" fill="#847E87" />
<rect x="300" y="1140" width="60" height="60" fill="#847E87" />
<rect x="360" y="1140" width="60" height="60" fill="#847E87" />
<rect x="420" y="1140" width="60" height="60" fill="#847E87" />
<rect x="480" y="1140" width="60" height="60" fill="#847E87" />
<rect x="540" y="1140" width="60" height="60" fill="#847E87" />
<rect x="600" y="1140" width="60" height="60" fill="#847E87" />
<rect x="660" y="1140" width="60" height="60" fill="#847E87" />
<rect x="720" y="1140" width="60" height="60" fill="#847E87" />
<rect x="1020" y="1140" width="60" height="60" fill="#847E87" />
<rect x="1080" y="1140" width="60" height="60" fill="#847E87" />
<rect x="1140" y="1140" width="60" height="60" fill="#847E87" />
<rect x="1200" y="1140" width="60" height="60" fill="#847E87" />
<rect x="1260" y="1140" width="60" height="60" fill="#847E87" />
<rect x="1320" y="1140" width="60" height="60" fill="#847E87" />
<rect x="1380" y="1140" width="60" height="60" fill="#847E87" />
<rect x="1440" y="1140" width="60" height="60" fill="#847E87" />
<rect x="1500" y="1140" width="60" height="60" fill="#847E87" />
<rect x="1560" y="1140" width="60" height="60" fill="#847E87" />
<rect x="360" y="1200" width="60" height="60" fill="#847E87" />
<rect x="420" y="1200" width="60" height="60" fill="#847E87" />
<rect x="480" y="1200" width="60" height="60" fill="#847E87" />
<rect x="540" y="1200" width="60" height="60" fill="#847E87" />
<rect x="600" y="1200" width="60" height="60" fill="#847E87" />
<rect x="660" y="1200" width="60" height="60" fill="#847E87" />
<rect x="720" y="1200" width="60" height="60" fill="#847E87" />
<rect x="780" y="1200" width="60" height="60" fill="#847E87" />
<rect x="840" y="1200" width="60" height="60" fill="#847E87" />
<rect x="900" y="1200" width="60" height="60" fill="#847E87" />
<rect x="960" y="1200" width="60" height="60" fill="#847E87" />
<rect x="1020" y="1200" width="60" height="60" fill="#847E87" />
<rect x="1080" y="1200" width="60" height="60" fill="#847E87" />
<rect x="1140" y="1200" width="60" height="60" fill="#847E87" />
<rect x="1200" y="1200" width="60" height="60" fill="#847E87" />
<rect x="1260" y="1200" width="60" height="60" fill="#847E87" />
<rect x="1320" y="1200" width="60" height="60" fill="#847E87" />
<rect x="1380" y="1200" width="60" height="60" fill="#847E87" />
<rect x="1440" y="1200" width="60" height="60" fill="#847E87" />
<rect x="1500" y="1200" width="60" height="60" fill="#847E87" />
<rect x="360" y="1260" width="60" height="60" fill="#847E87" />
<rect x="420" y="1260" width="60" height="60" fill="#847E87" />
<rect x="480" y="1260" width="60" height="60" fill="#847E87" />
<rect x="540" y="1260" width="60" height="60" fill="#847E87" />
<rect x="600" y="1260" width="60" height="60" fill="#847E87" />
<rect x="660" y="1260" width="60" height="60" fill="#847E87" />
<rect x="720" y="1260" width="60" height="60" fill="#847E87" />
<rect x="780" y="1260" width="60" height="60" fill="#847E87" />
<rect x="840" y="1260" width="60" height="60" fill="#847E87" />
<rect x="900" y="1260" width="60" height="60" fill="#847E87" />
<rect x="960" y="1260" width="60" height="60" fill="#847E87" />
<rect x="1020" y="1260" width="60" height="60" fill="#847E87" />
<rect x="1080" y="1260" width="60" height="60" fill="#847E87" />
<rect x="1140" y="1260" width="60" height="60" fill="#847E87" />
<rect x="1200" y="1260" width="60" height="60" fill="#847E87" />
<rect x="1260" y="1260" width="60" height="60" fill="#847E87" />
<rect x="1320" y="1260" width="60" height="60" fill="#847E87" />
<rect x="1380" y="1260" width="60" height="60" fill="#847E87" />
<rect x="1440" y="1260" width="60" height="60" fill="#847E87" />
<rect x="1500" y="1260" width="60" height="60" fill="#847E87" />
<rect x="360" y="1320" width="60" height="60" fill="#847E87" />
<rect x="420" y="1320" width="60" height="60" fill="#847E87" />
<rect x="480" y="1320" width="60" height="60" fill="#847E87" />
<rect x="540" y="1320" width="60" height="60" fill="#847E87" />
<rect x="600" y="1320" width="60" height="60" fill="#847E87" />
<rect x="660" y="1320" width="60" height="60" fill="#847E87" />
<rect x="720" y="1320" width="60" height="60" fill="#847E87" />
<rect x="780" y="1320" width="60" height="60" fill="#847E87" />
<rect x="840" y="1320" width="60" height="60" fill="#847E87" />
<rect x="900" y="1320" width="60" height="60" fill="#847E87" />
<rect x="960" y="1320" width="60" height="60" fill="#847E87" />
<rect x="1020" y="1320" width="60" height="60" fill="#847E87" />
<rect x="1080" y="1320" width="60" height="60" fill="#847E87" />
<rect x="1140" y="1320" width="60" height="60" fill="#847E87" />
<rect x="1200" y="1320" width="60" height="60" fill="#847E87" />
<rect x="1260" y="1320" width="60" height="60" fill="#847E87" />
<rect x="1320" y="1320" width="60" height="60" fill="#847E87" />
<rect x="1380" y="1320" width="60" height="60" fill="#847E87" />
<rect x="1440" y="1320" width="60" height="60" fill="#847E87" />
<rect x="420" y="1380" width="60" height="60" fill="#847E87" />
<rect x="480" y="1380" width="60" height="60" fill="#847E87" />
<rect x="540" y="1380" width="60" height="60" fill="#847E87" />
<rect x="600" y="1380" width="60" height="60" fill="#847E87" />
<rect x="660" y="1380" width="60" height="60" fill="#847E87" />
<rect x="720" y="1380" width="60" height="60" fill="#847E87" />
<rect x="780" y="1380" width="60" height="60" fill="#847E87" />
<rect x="840" y="1380" width="60" height="60" fill="#847E87" />
<rect x="900" y="1380" width="60" height="60" fill="#847E87" />
<rect x="960" y="1380" width="60" height="60" fill="#847E87" />
<rect x="1020" y="1380" width="60" height="60" fill="#847E87" />
<rect x="1080" y="1380" width="60" height="60" fill="#847E87" />
<rect x="1140" y="1380" width="60" height="60" fill="#847E87" />
<rect x="1200" y="1380" width="60" height="60" fill="#847E87" />
<rect x="1260" y="1380" width="60" height="60" fill="#847E87" />
<rect x="1320" y="1380" width="60" height="60" fill="#847E87" />
<rect x="1380" y="1380" width="60" height="60" fill="#847E87" />
<rect x="480" y="1440" width="60" height="60" fill="#847E87" />
<rect x="540" y="1440" width="60" height="60" fill="#847E87" />
<rect x="600" y="1440" width="60" height="60" fill="#847E87" />
<rect x="660" y="1440" width="60" height="60" fill="#847E87" />
<rect x="720" y="1440" width="60" height="60" fill="#847E87" />
<rect x="780" y="1440" width="60" height="60" fill="#847E87" />
<rect x="840" y="1440" width="60" height="60" fill="#847E87" />
<rect x="900" y="1440" width="60" height="60" fill="#847E87" />
<rect x="960" y="1440" width="60" height="60" fill="#847E87" />
<rect x="1020" y="1440" width="60" height="60" fill="#847E87" />
<rect x="1080" y="1440" width="60" height="60" fill="#847E87" />
<rect x="1140" y="1440" width="60" height="60" fill="#847E87" />
<rect x="1200" y="1440" width="60" height="60" fill="#847E87" />
<rect x="1260" y="1440" width="60" height="60" fill="#847E87" />
<rect x="1320" y="1440" width="60" height="60" fill="#847E87" />
<rect x="480" y="1500" width="60" height="60" fill="#847E87" />
<rect x="540" y="1500" width="60" height="60" fill="#847E87" />
<rect x="600" y="1500" width="60" height="60" fill="#847E87" />
<rect x="660" y="1500" width="60" height="60" fill="#847E87" />
<rect x="720" y="1500" width="60" height="60" fill="#847E87" />
<rect x="780" y="1500" width="60" height="60" fill="#847E87" />
<rect x="840" y="1500" width="60" height="60" fill="#847E87" />
<rect x="900" y="1500" width="60" height="60" fill="#847E87" />
<rect x="960" y="1500" width="60" height="60" fill="#847E87" />
<rect x="1020" y="1500" width="60" height="60" fill="#847E87" />
<rect x="1080" y="1500" width="60" height="60" fill="#847E87" />
<rect x="1140" y="1500" width="60" height="60" fill="#847E87" />
<rect x="1200" y="1500" width="60" height="60" fill="#847E87" />
<rect x="1260" y="1500" width="60" height="60" fill="#847E87" />
<rect x="540" y="1560" width="60" height="60" fill="#847E87" />
<rect x="600" y="1560" width="60" height="60" fill="#847E87" />
<rect x="660" y="1560" width="60" height="60" fill="#847E87" />
<rect x="720" y="1560" width="60" height="60" fill="#847E87" />
<rect x="780" y="1560" width="60" height="60" fill="#847E87" />
<rect x="840" y="1560" width="60" height="60" fill="#847E87" />
<rect x="900" y="1560" width="60" height="60" fill="#847E87" />
<rect x="960" y="1560" width="60" height="60" fill="#847E87" />
<rect x="1020" y="1560" width="60" height="60" fill="#847E87" />
<rect x="1080" y="1560" width="60" height="60" fill="#847E87" />
<rect x="1140" y="1560" width="60" height="60" fill="#847E87" />
<rect x="1200" y="1560" width="60" height="60" fill="#847E87" />
<rect x="600" y="1620" width="60" height="60" fill="#847E87" />
<rect x="660" y="1620" width="60" height="60" fill="#847E87" />
<rect x="720" y="1620" width="60" height="60" fill="#847E87" />
<rect x="780" y="1620" width="60" height="60" fill="#847E87" />
<rect x="840" y="1620" width="60" height="60" fill="#847E87" />
<rect x="900" y="1620" width="60" height="60" fill="#847E87" />
<rect x="960" y="1620" width="60" height="60" fill="#847E87" />
<rect x="1020" y="1620" width="60" height="60" fill="#847E87" />
<rect x="1080" y="1620" width="60" height="60" fill="#847E87" />
<rect x="1140" y="1620" width="60" height="60" fill="#847E87" />
<rect x="600" y="1680" width="60" height="60" fill="#847E87" />
<rect x="660" y="1680" width="60" height="60" fill="#847E87" />
<rect x="720" y="1680" width="60" height="60" fill="#847E87" />
<rect x="780" y="1680" width="60" height="60" fill="#847E87" />
<rect x="840" y="1680" width="60" height="60" fill="#847E87" />
<rect x="900" y="1680" width="60" height="60" fill="#847E87" />
<rect x="960" y="1680" width="60" height="60" fill="#847E87" />
<rect x="1020" y="1680" width="60" height="60" fill="#847E87" />
<rect x="720" y="1740" width="60" height="60" fill="#847E87" />
<rect x="780" y="1740" width="60" height="60" fill="#847E87" />
<rect x="840" y="1740" width="60" height="60" fill="#847E87" />
</svg>